<?xml version="1.0" encoding="utf-8"?>
<!-- Generator: Adobe Illustrator 22.0.1, SVG Export Plug-In . SVG Version: 6.00 Build 0)  -->
<svg version="1.1" id="Layer_1" xmlns="http://www.w3.org/2000/svg" xmlns:xlink="http://www.w3.org/1999/xlink" x="0px" y="0px"
	 viewBox="0 0 60 60" style="enable-background:new 0 0 60 60;" xml:space="preserve">
<path class="st0" d="M55,30c0,13.8-11.2,25-25,25C18.6,55,9,47.4,6,37c3.8,3.1,8.7,5,14,5c12.2,0,22-9.8,22-22c0-5.3-1.9-10.2-5-14
	C47.4,9,55,18.6,55,30z M20,45c-2.4,0-4.8-0.4-7-1c4,4.9,10.1,8,17,8c12.2,0,22-9.8,22-22c0-6.8-3.1-12.9-8-17c0.6,2.2,1,4.6,1,7
	C45,33.8,33.8,45,20,45z"/>
</svg>
