<?xml version="1.0" encoding="utf-8"?>
<!-- Generator: Adobe Illustrator 22.0.1, SVG Export Plug-In . SVG Version: 6.00 Build 0)  -->
<svg version="1.1" id="Layer_1" xmlns="http://www.w3.org/2000/svg" xmlns:xlink="http://www.w3.org/1999/xlink" x="0px" y="0px"
	 viewBox="0 0 60 60" style="enable-background:new 0 0 60 60;" xml:space="preserve">
<g>
	<g>
		<path class="st0" d="M12.3,14.4c0.6,0.6,1.5,0.6,2.1,0c0.6-0.6,0.6-1.5,0-2.1l-2.1-2.1c-0.6-0.6-1.5-0.6-2.1,0s-0.6,1.5,0,2.1
			L12.3,14.4z M12.3,45.6l-2.1,2.1c-0.6,0.6-0.6,1.5,0,2.1c0.6,0.6,1.5,0.6,2.1,0l2.1-2.1c0.6-0.6,0.6-1.5,0-2.1
			C13.9,45,12.9,45,12.3,45.6z M6.5,28.5h-3C2.7,28.5,2,29.2,2,30c0,0.8,0.7,1.5,1.5,1.5h3C7.3,31.5,8,30.8,8,30
			C8,29.2,7.3,28.5,6.5,28.5z M47.7,10.2l-2.1,2.1c-0.6,0.6-0.6,1.5,0,2.1c0.6,0.6,1.5,0.6,2.1,0l2.1-2.1c0.6-0.6,0.6-1.5,0-2.1
			S48.3,9.6,47.7,10.2z M30,8c0.8,0,1.5-0.7,1.5-1.5v-3C31.5,2.7,30.8,2,30,2s-1.5,0.7-1.5,1.5v3C28.5,7.3,29.2,8,30,8z M47.7,45.6
			c-0.6-0.6-1.5-0.6-2.1,0c-0.6,0.6-0.6,1.5,0,2.1l2.1,2.1c0.6,0.6,1.5,0.6,2.1,0c0.6-0.6,0.6-1.5,0-2.1L47.7,45.6z M30,14
			c-8.8,0-16,7.2-16,16s7.2,16,16,16s16-7.2,16-16S38.8,14,30,14z M30,43c-7.2,0-13-5.8-13-13s5.8-13,13-13s13,5.8,13,13
			S37.2,43,30,43z M56.5,28.5h-3c-0.8,0-1.5,0.7-1.5,1.5c0,0.8,0.7,1.5,1.5,1.5h3c0.8,0,1.5-0.7,1.5-1.5
			C58,29.2,57.3,28.5,56.5,28.5z M30,52c-0.8,0-1.5,0.7-1.5,1.5v3c0,0.8,0.7,1.5,1.5,1.5s1.5-0.7,1.5-1.5v-3
			C31.5,52.7,30.8,52,30,52z"/>
	</g>
</g>
</svg>
