<?xml version="1.0" encoding="utf-8"?>
<!-- Generator: Adobe Illustrator 22.0.1, SVG Export Plug-In . SVG Version: 6.00 Build 0)  -->
<svg version="1.1" id="Layer_1" xmlns="http://www.w3.org/2000/svg" xmlns:xlink="http://www.w3.org/1999/xlink" x="0px" y="0px"
	 viewBox="0 0 160 160" style="enable-background:new 0 0 160 160;" xml:space="preserve">
<path class="st0" d="M138,84h-11c-2.2,0-4-1.8-4-4s1.8-4,4-4h11c2.2,0,4,1.8,4,4S140.2,84,138,84z M116.1,49.6
	c-1.6,1.6-4.1,1.6-5.7,0s-1.6-4.1,0-5.7l7.8-7.8c1.6-1.6,4.1-1.6,5.7,0s1.6,4.1,0,5.7L116.1,49.6z M80,112c-17.7,0-32-14.3-32-32
	s14.3-32,32-32s32,14.3,32,32S97.7,112,80,112z M80,56c-13.3,0-24,10.7-24,24s10.7,24,24,24s24-10.7,24-24S93.3,56,80,56z M80,37
	c-2.2,0-4-1.8-4-4V22c0-2.2,1.8-4,4-4s4,1.8,4,4v11C84,35.2,82.2,37,80,37z M43.9,49.6l-7.8-7.8c-1.6-1.6-1.6-4.1,0-5.7
	s4.1-1.6,5.7,0l7.8,7.8c1.6,1.6,1.6,4.1,0,5.7C48,51.2,45.5,51.2,43.9,49.6z M37,80c0,2.2-1.8,4-4,4H22c-2.2,0-4-1.8-4-4s1.8-4,4-4
	h11C35.2,76,37,77.8,37,80z M43.9,110.4c1.6-1.6,4.1-1.6,5.7,0c1.6,1.6,1.6,4.1,0,5.7l-7.8,7.8c-1.6,1.6-4.1,1.6-5.7,0
	s-1.6-4.1,0-5.7L43.9,110.4z M80,123c2.2,0,4,1.8,4,4v11c0,2.2-1.8,4-4,4s-4-1.8-4-4v-11C76,124.8,77.8,123,80,123z M116.1,110.4
	l7.8,7.8c1.6,1.6,1.6,4.1,0,5.7s-4.1,1.6-5.7,0l-7.8-7.8c-1.6-1.6-1.6-4.1,0-5.7S114.5,108.8,116.1,110.4z"/>
</svg>
