<?xml version="1.0" encoding="utf-8"?>
<!-- Generator: Adobe Illustrator 22.0.1, SVG Export Plug-In . SVG Version: 6.00 Build 0)  -->
<svg version="1.1" id="Layer_1" xmlns="http://www.w3.org/2000/svg" xmlns:xlink="http://www.w3.org/1999/xlink" x="0px" y="0px"
	 viewBox="0 0 160 160" style="enable-background:new 0 0 160 160;" xml:space="preserve">
<path class="st0" d="M133.4,70.9c-0.6,2.2-2.8,3.5-5,2.9l-20.1-5.4L88,80l20.3,11.7l20.2-5.5c2.2-0.6,4.4,0.7,5,2.9
	c0.6,2.2-0.7,4.4-2.9,5l-12.3,3.3l12.3,7.1c1.9,1.1,2.6,3.5,1.5,5.5c-1.1,1.9-3.5,2.6-5.5,1.5l-12.2-7.1l3.3,12.3
	c0.6,2.2-0.7,4.4-2.9,5c-2.2,0.6-4.4-0.7-5-2.9l-5.3-20.1L84,87v23.4l14.8,14.7c1.6,1.6,1.6,4.2,0,5.7c-1.6,1.6-4.2,1.6-5.8,0l-9-9
	V136c0,2.2-1.8,4-4,4s-4-1.8-4-4v-14.1l-9,8.9c-1.6,1.6-4.2,1.6-5.8,0s-1.6-4.2,0-5.7L76,110.4V86.9L55.7,98.6l-5.4,20.2
	c-0.6,2.2-2.8,3.5-5,2.9s-3.5-2.8-2.9-5l3.3-12.3l-12.3,7.1c-1.9,1.1-4.4,0.4-5.5-1.5s-0.4-4.4,1.5-5.5l12.2-7.1l-12.2-3.3
	c-2.2-0.6-3.5-2.8-2.9-5s2.8-3.5,5-2.9l20.1,5.4L72,80L51.8,68.4l-20.1,5.5c-2.2,0.6-4.4-0.7-5-2.9c-0.6-2.2,0.7-4.4,2.9-5l12.3-3.3
	l-12.3-7.1c-1.9-1.1-2.6-3.5-1.5-5.5c1.1-1.9,3.5-2.6,5.5-1.5l12.2,7.1l-3.2-12.2c-0.6-2.2,0.7-4.4,2.9-5s4.4,0.7,5,2.9l5.3,20.1
	L76,73.1V49.7L61.1,35c-1.6-1.6-1.6-4.2,0-5.8c1.6-1.6,4.2-1.6,5.8,0l9,9V24c0-2.2,1.8-4,4-4s4,1.8,4,4v14.1l9-9
	c1.6-1.6,4.2-1.6,5.8,0c1.6,1.6,1.6,4.2,0,5.8L84,49.7v23.4l20.3-11.7l5.4-20.2c0.6-2.2,2.8-3.5,5-2.9s3.5,2.8,2.9,5l-3.3,12.3
	l12.3-7.1c1.9-1.1,4.4-0.5,5.5,1.5c1.1,1.9,0.4,4.4-1.5,5.5l-12.3,7.1l12.3,3.3C132.7,66.5,134,68.7,133.4,70.9z"/>
</svg>
