<?xml version="1.0" encoding="utf-8"?>
<!-- Generator: Adobe Illustrator 22.0.1, SVG Export Plug-In . SVG Version: 6.00 Build 0)  -->
<svg version="1.1" id="Layer_1" xmlns="http://www.w3.org/2000/svg" xmlns:xlink="http://www.w3.org/1999/xlink" x="0px" y="0px"
	 viewBox="0 0 160 160" style="enable-background:new 0 0 160 160;" xml:space="preserve">
<g>
	<g>
		<path class="st0" d="M60,35.5c2.2,0,4-1.8,4-4v-5c0-2.2-1.8-4-4-4s-4,1.8-4,4v5C56,33.7,57.8,35.5,60,35.5z M26.1,47.2
			c1.6,1.6,4.1,1.6,5.7,0s1.6-4.1,0-5.7L28.2,38c-1.6-1.6-4.1-1.6-5.7,0s-1.6,4.1,0,5.7L26.1,47.2z M93.9,47.2l3.5-3.5
			c1.6-1.6,1.6-4.1,0-5.7c-1.6-1.6-4.1-1.6-5.7,0l-3.5,3.5c-1.6,1.6-1.6,4.1,0,5.7C89.8,48.8,92.4,48.8,93.9,47.2z M26.1,103.8
			l-3.5,3.5c-1.6,1.6-1.6,4.1,0,5.7s4.1,1.6,5.7,0l3.5-3.5c1.6-1.6,1.6-4.1,0-5.7C30.2,102.2,27.6,102.2,26.1,103.8z M16,71.5h-5
			c-2.2,0-4,1.8-4,4s1.8,4,4,4h5c2.2,0,4-1.8,4-4S18.2,71.5,16,71.5z M135.1,93.2c-1-17.6-15.7-31.7-33.6-31.7
			c-5.5,0-10.8,1.3-15.4,3.7C82,54.9,71.8,47.5,60,47.5c-15.5,0-28,12.5-28,28c0,9.6,4.8,18.1,12.2,23.1c-2.1,3.7-3.2,8-3.2,12.6
			c0,14.5,11.8,26.3,26.4,26.3h63.2c12.4,0,22.5-10,22.5-22.4C153,104.2,145.4,95.2,135.1,93.2z M40,75.5c0-11,9-20,20-20
			c9.1,0,16.8,6.1,19.2,14.4c-4.5,4-8,9.1-9.8,15.1c-0.7-0.1-1.3-0.1-2-0.1c-7.1,0-13.5,2.8-18.3,7.3C43.6,88.7,40,82.5,40,75.5z
			 M130.5,129.5H67.4c-10.1,0-18.4-8.2-18.4-18.3s8.2-18.3,18.4-18.3c1.3,0,2.7,0.2,4.1,0.5l4,0.9l0.8-4.1
			c2.3-12,12.9-20.8,25.2-20.8c13.3,0,24.3,10.2,25.5,23.1c-5.8,0.5-11,3.4-14.6,7.6c-4.3,5,2.9,8.7,6,5.1c2.1-2.5,5.1-4.1,8.4-4.7
			l0,0l4.1,0.1c7.9,0.2,14.1,6.5,14.1,14.4C145,123.1,138.5,129.5,130.5,129.5z"/>
	</g>
</g>
</svg>
