<?xml version="1.0" encoding="utf-8"?>
<!-- Generator: Adobe Illustrator 22.0.1, SVG Export Plug-In . SVG Version: 6.00 Build 0)  -->
<svg version="1.1" id="Layer_1" xmlns="http://www.w3.org/2000/svg" xmlns:xlink="http://www.w3.org/1999/xlink" x="0px" y="0px"
	 viewBox="0 0 160 160" style="enable-background:new 0 0 160 160;" xml:space="preserve">
<g>
	<g>
		<path class="st0" d="M66.5,126h-3c-1.7,0-3,1.3-3,3v2c0,1.7,1.3,3,3,3h3c1.7,0,3-1.3,3-3v-2C69.5,127.3,68.2,126,66.5,126z
			 M126.5,44h11c2.2,0,4-1.8,4-4s-1.8-4-4-4h-11c-2.2,0-4,1.8-4,4S124.3,44,126.5,44z M47.5,86c-2.2,0-4,1.8-4,4s1.8,4,4,4h21
			c2.2,0,4-1.8,4-4s-1.8-4-4-4H47.5z M121.7,65.9C120.8,46.5,104.7,31,85,31c-6,0-11.7,1.5-16.8,4.1C63,29.5,55.7,26,47.5,26
			c-15.5,0-28,12.5-28,28c0,5.5,1.6,10.6,4.3,14.9c-3.3,4.7-5.3,10.4-5.3,16.5c0,15.8,12.9,28.6,28.7,28.6h39.2c0,0,0,0,0.1,0
			c2.2,0,4-1.8,4-4s-1.8-4-4-4l0,0H47.2c-11.4,0-20.7-9.2-20.7-20.6c0-0.6,0-1.2,0.1-1.8c0-0.2,0-0.3,0.1-0.5
			c0.1-0.6,0.1-1.1,0.3-1.7c0-0.2,0.1-0.3,0.1-0.5c0.1-0.4,0.2-0.8,0.3-1.2c0.1-0.3,0.2-0.5,0.2-0.8c0.1-0.3,0.2-0.6,0.3-0.9
			c0.2-0.5,0.4-0.9,0.6-1.4c0.1-0.2,0.2-0.3,0.2-0.5c1.4-2.7,3.4-5.1,5.8-7l0,0c1.3-1,2.6-1.8,4.1-2.5c0.1,0,0.1-0.1,0.2-0.1
			c0.4-0.2,0.7-0.3,1.1-0.4c0.2-0.1,0.5-0.2,0.7-0.2c0.3-0.1,0.6-0.2,1-0.3c0.3-0.1,0.6-0.2,0.9-0.2c0.3-0.1,0.6-0.1,0.9-0.2
			c0.4-0.1,0.8-0.1,1.2-0.2c0.2,0,0.5-0.1,0.7-0.1c0.6-0.1,1.3-0.1,2-0.1c1.5,0,3.1,0.2,4.6,0.5l4,0.9l0.8-4.1
			c0.1-0.8,0.3-1.5,0.5-2.3v-0.1c0.2-0.7,0.4-1.4,0.7-2.1c0-0.1,0-0.1,0.1-0.2c0.3-0.7,0.5-1.3,0.8-2c0-0.1,0.1-0.1,0.1-0.2
			c0.3-0.6,0.6-1.3,1-1.9c0-0.1,0.1-0.1,0.1-0.2c0.4-0.6,0.8-1.2,1.2-1.8l0.1-0.1c0.4-0.6,0.9-1.2,1.3-1.7l0.1-0.1
			c0.5-0.6,1-1.1,1.5-1.7l0,0c0.5-0.5,1.1-1.1,1.7-1.6l0,0c2.4-2.1,5.2-3.8,8.2-5h0.1c0.4-0.2,0.8-0.3,1.3-0.5
			c0.1,0,0.2-0.1,0.3-0.1c0.4-0.1,0.7-0.2,1.1-0.4c0.1,0,0.2-0.1,0.3-0.1c0.5-0.1,0.9-0.2,1.4-0.4l0,0c0.5-0.1,1-0.2,1.5-0.3
			c0.1,0,0.2,0,0.3-0.1c0.4-0.1,0.7-0.1,1.1-0.2c0.2,0,0.3,0,0.5-0.1c0.3,0,0.7-0.1,1.1-0.1c0.1,0,0.3,0,0.4,0c0.5,0,1,0,1.5,0
			s1,0,1.4,0c0.2,0,0.3,0,0.5,0c0.3,0,0.6,0,0.9,0.1c0.2,0,0.4,0,0.6,0.1c0.3,0,0.6,0.1,0.8,0.1c0.2,0,0.4,0.1,0.6,0.1
			c0.3,0,0.5,0.1,0.8,0.1c0.2,0,0.4,0.1,0.6,0.1c0.2,0.1,0.5,0.1,0.7,0.2c0.2,0.1,0.4,0.1,0.6,0.2c0.2,0.1,0.5,0.1,0.7,0.2
			c0.2,0.1,0.4,0.1,0.6,0.2c0.2,0.1,0.4,0.1,0.7,0.2c0.2,0.1,0.4,0.2,0.7,0.2c0.2,0.1,0.4,0.2,0.6,0.2c0.2,0.1,0.4,0.2,0.7,0.3
			c0.2,0.1,0.4,0.2,0.6,0.3s0.4,0.2,0.7,0.3c0.2,0.1,0.4,0.2,0.5,0.3c0.2,0.1,0.5,0.2,0.7,0.4c0.2,0.1,0.3,0.2,0.5,0.3
			s0.5,0.3,0.7,0.4c0.1,0.1,0.3,0.2,0.4,0.3c0.2,0.2,0.5,0.3,0.7,0.5c0.1,0.1,0.3,0.2,0.4,0.3c0.2,0.2,0.5,0.3,0.7,0.5
			c0.1,0.1,0.2,0.2,0.3,0.3c0.2,0.2,0.5,0.4,0.7,0.6c0.1,0.1,0.2,0.1,0.3,0.2c0.3,0.2,0.5,0.4,0.8,0.7c0.1,0.1,0.1,0.1,0.2,0.2
			c0.3,0.3,0.5,0.5,0.8,0.8c0,0,0,0,0.1,0.1c5.1,5.2,8.2,12.2,8.2,20c0,0.6,0,1.1-0.1,1.6l-0.2,4.1h1.6l2.5,0.1
			c8.9,0.2,16,7.4,16,16.3c0,9-7.4,16.3-16.4,16.3h-10.6l0,0c-2.2,0-4,1.8-4,4s1.8,4,4,4c0,0,0,0,0.1,0h10.5
			c13.5,0,24.4-10.9,24.4-24.3C141.5,77.8,133.1,68,121.7,65.9z M49.8,57c-0.8-0.1-1.7-0.1-2.5-0.1c-6.6,0-12.8,2.3-17.6,6
			c-1.3-2.7-2.1-5.7-2.1-8.9c0-11,9-20,20-20c5.4,0,10.2,2.1,13.8,5.6C56,44,51.9,50,49.8,57z M103.5,126h-18c-2.2,0-4,1.8-4,4
			s1.8,4,4,4h18c2.2,0,4-1.8,4-4S105.7,126,103.5,126z"/>
	</g>
</g>
</svg>
