<?xml version="1.0" encoding="utf-8"?>
<!-- Generator: Adobe Illustrator 22.0.1, SVG Export Plug-In . SVG Version: 6.00 Build 0)  -->
<svg version="1.1" id="Layer_1" xmlns="http://www.w3.org/2000/svg" xmlns:xlink="http://www.w3.org/1999/xlink" x="0px" y="0px"
	 viewBox="0 0 160 160" style="enable-background:new 0 0 160 160;" xml:space="preserve">
<g>
	<g>
		<path class="st0" d="M29.8,101.8c-2.1-0.6-4.3,0.7-4.9,2.8l-3.1,11.6c-0.6,2.1,0.7,4.3,2.8,4.9s4.3-0.7,4.9-2.8l3.1-11.6
			C33.2,104.6,31.9,102.4,29.8,101.8z M133.1,66.4c-1-17.4-15.2-31.3-32.8-31.7c-5.2-11.8-17-20-30.8-20c-14.8,0-27.8,9.7-32.1,23.5
			c-0.7-0.1-1.3-0.1-2-0.1C20.8,38.2,9,50,9,64.5s11.8,26.2,26.4,26.2h4.4c2.8,11.2,12.7,19.6,24.7,20c0.2,0,0.3,0.1,0.5,0.1
			c0.1,0,0.1,0,0.2,0s0.1,0,0.2,0l0,0c2-0.2,3.6-1.9,3.6-4s-1.6-3.8-3.6-4l0,0c-7.9,0-14.6-5-17.2-12c-0.2-0.5-0.3-1-0.5-1.5v-0.1
			c-0.1-0.4-0.2-0.9-0.3-1.4c0-0.2-0.1-0.4-0.1-0.5c-0.1-0.4-0.1-0.7-0.1-1.1C47,85.6,47,85,47,84.5c0-10.1,8.2-18.3,18.4-18.3
			c1.3,0,2.7,0.2,4.1,0.5l4,0.9l0.8-4.1c2-10.4,10.2-18.3,20.3-20.3c0.3-0.1,0.6-0.1,0.9-0.1c0.5-0.1,1-0.2,1.6-0.2
			c0.2,0,0.3,0,0.5,0c0.7-0.1,1.3-0.1,2-0.1c0.5,0,1.1,0,1.6,0.1h0.1c0.5,0,1,0.1,1.5,0.1c12.6,1.6,22.4,12.3,22.4,25.4
			c0,0.5,0,1,0,1.5L125,74l4.1,0.1c7.9,0.2,14.1,6.5,14.1,14.4s-6.5,14.4-14.5,14.4l0,0c-2,0.2-3.5,1.9-3.5,4s1.6,3.7,3.5,4l0,0
			c0.1,0,0.2,0,0.2,0c0.1,0,0.1,0,0.2,0c0.1,0,0.2,0,0.3,0c12-0.4,21.7-10.3,21.7-22.4C151,77.5,143.4,68.5,133.1,66.4z M67.4,58.2
			c-0.7-0.1-1.3-0.1-2-0.1c-14,0-25.4,10.9-26.3,24.6h-3.7C25.2,82.8,17,74.6,17,64.5s8.2-18.3,18.4-18.3c1.3,0,2.7,0.2,4.1,0.5
			l4,0.9l0.8-4.1c2.3-12,12.9-20.8,25.2-20.8c9.5,0,17.8,5.2,22.3,12.9C80.3,38.4,70.9,46.9,67.4,58.2z M106,102.8H91.5L105.3,82
			c1.2-1.8,0.7-4.3-1.1-5.5c-1.8-1.2-4.3-0.7-5.5,1.1l-18,27c-0.8,1.2-0.9,2.8-0.2,4.1c0.7,1.3,2.1,2.1,3.5,2.1h14.5l-13.9,20.8
			c-1.2,1.8-0.7,4.3,1.1,5.5c0.7,0.5,1.5,0.7,2.2,0.7c1.3,0,2.6-0.6,3.3-1.8l18-27c0.8-1.2,0.9-2.8,0.2-4.1
			C108.8,103.6,107.5,102.8,106,102.8z M40.8,125.8c-2.1-0.6-4.3,0.7-4.9,2.8l-3.1,11.6c-0.6,2.1,0.7,4.3,2.8,4.9
			c2.1,0.6,4.3-0.7,4.9-2.8l3.1-11.6C44.2,128.6,42.9,126.4,40.8,125.8z"/>
	</g>
</g>
</svg>
