<?xml version="1.0" encoding="utf-8"?>
<!-- Generator: Adobe Illustrator 22.0.1, SVG Export Plug-In . SVG Version: 6.00 Build 0)  -->
<svg version="1.1" id="Layer_1" xmlns="http://www.w3.org/2000/svg" xmlns:xlink="http://www.w3.org/1999/xlink" x="0px" y="0px"
	 viewBox="0 0 160 160" style="enable-background:new 0 0 160 160;" xml:space="preserve">
<g>
	<g>
		<path class="st0" d="M119.5,40C107.1,40,97,49.9,97,62c0,2.2,1.8,4,4.1,4c2.2,0,4.1-1.8,4.1-4c0-7.7,6.4-14,14.3-14
			s14.3,6.3,14.3,14s-6.3,14-14.2,14H73.1c-2.2,0-4.1,1.8-4.1,4s1.8,4,4.1,4h46.5c12.4,0,22.5-9.9,22.5-22S131.9,40,119.5,40z
			 M22.1,66h37.5C71.9,66,82,56.1,82,44S71.9,22,59.5,22S37,31.9,37,44c0,2.2,1.8,4,4.1,4c2.2,0,4.1-1.8,4.1-4c0-7.7,6.4-14,14.3-14
			s14.3,6.3,14.3,14s-6.3,14-14.2,14H22.1c-2.2,0-4.1,1.8-4.1,4C18,64.2,19.8,66,22.1,66z M99.5,94H48.1c-2.2,0-4.1,1.8-4.1,4
			s1.8,4,4.1,4h51.5c7.9,0,14.2,6.3,14.2,14s-6.4,14-14.3,14s-14.3-6.3-14.3-14c0-2.2-1.8-4-4.1-4c-2.2,0-4.1,1.8-4.1,4
			c0,12.1,10.1,22,22.5,22s22.5-9.9,22.5-22C122,103.9,111.9,94,99.5,94z M41,76H22c-2.2,0-4,1.8-4,4s1.8,4,4,4h19c2.2,0,4-1.8,4-4
			S43.2,76,41,76z M53,80c0,2.2,1.8,4,4,4s4-1.8,4-4s-1.8-4-4-4S53,77.8,53,80z M32,94H22c-2.2,0-4,1.8-4,4s1.8,4,4,4h10
			c2.2,0,4-1.8,4-4S34.2,94,32,94z"/>
	</g>
</g>
</svg>
