<?xml version="1.0" encoding="utf-8"?>
<!-- Generator: Adobe Illustrator 22.0.1, SVG Export Plug-In . SVG Version: 6.00 Build 0)  -->
<svg version="1.1" id="Layer_1" xmlns="http://www.w3.org/2000/svg" xmlns:xlink="http://www.w3.org/1999/xlink" x="0px" y="0px"
	 viewBox="0 0 160 160" style="enable-background:new 0 0 160 160;" xml:space="preserve">
<g>
	<g>
		<path class="st0" d="M64.4,99.8c-2.1-0.6-4.3,0.7-4.9,2.8l-3.1,11.6c-0.6,2.1,0.7,4.3,2.8,4.9s4.3-0.7,4.9-2.8l3.1-11.6
			C67.8,102.6,66.5,100.4,64.4,99.8z M41.2,102.3c-2.1-0.6-4.3,0.7-4.9,2.8l-3.1,11.6c-0.6,2.1,0.7,4.3,2.8,4.9s4.3-0.7,4.9-2.8
			l3.1-11.6C44.6,105.1,43.4,102.9,41.2,102.3z M79.3,124.4c-2.1-0.6-4.3,0.7-4.9,2.8l-3.1,11.6c-0.6,2.1,0.7,4.3,2.8,4.9
			c2.1,0.6,4.3-0.7,4.9-2.8l3.1-11.6C82.7,127.1,81.4,124.9,79.3,124.4z M118.1,47.9c-1-17.6-15.7-31.7-33.6-31.7
			c-14.8,0-27.8,9.7-32.1,23.5c-0.7-0.1-1.3-0.1-2-0.1C35.8,39.6,24,51.4,24,65.9s11.8,26.3,26.4,26.3h63.2
			c12.4,0,22.5-10,22.5-22.4C136,58.9,128.4,49.9,118.1,47.9z M113.5,84.2H50.4C40.2,84.2,32,76,32,65.9s8.2-18.3,18.4-18.3
			c1.3,0,2.7,0.2,4.1,0.5l4,0.9l0.8-4.1c2.3-12,12.9-20.8,25.2-20.8c13.3,0,24.3,10.2,25.5,23.1c-5.8,0.6-11,3.5-14.6,7.8
			c-4.1,4.9,2,9.9,6,5.2c2.5-2.9,6-4.8,10-4.9l2.5,0.1c7.9,0.2,14.1,6.5,14.1,14.4S121.5,84.2,113.5,84.2z M103.8,102.2
			c-2.1-0.6-4.3,0.7-4.9,2.8l-3.1,11.6c-0.6,2.1,0.7,4.3,2.8,4.9c2.1,0.6,4.3-0.7,4.9-2.8l3.1-11.6
			C107.2,105,105.9,102.8,103.8,102.2z M123.9,113.7c-2.1-0.6-4.3,0.7-4.9,2.8l-3.1,11.6c-0.6,2.1,0.7,4.3,2.8,4.9
			c2.1,0.6,4.3-0.7,4.9-2.8l3.1-11.6C127.3,116.5,126.1,114.3,123.9,113.7z"/>
	</g>
</g>
</svg>
